<svg width="113" height="48" viewBox="0 0 113 48" fill="none" xmlns="http://www.w3.org/2000/svg">
<path d="M54.2996 17.1702L46.0225 33.536C44.1229 37.9237 40.9535 41.6488 36.9159 44.2274C32.7032 46.9177 27.7555 48.2255 22.7636 47.9682C17.7718 47.7109 12.9848 45.9013 9.07099 42.7921C5.15718 39.6829 2.31187 35.4293 0.932238 30.6249C-0.447391 25.8206 -0.292475 20.7054 1.37536 15.9933C3.0432 11.2813 6.14071 7.20759 10.2355 4.34093C14.3303 1.47427 19.218 -0.0422809 24.2163 0.00297391C29.2146 0.0482287 34.074 1.65303 38.1162 4.59336L31.021 14.3476C29.0103 12.885 26.5932 12.0868 24.1071 12.0643C21.6209 12.0418 19.1898 12.7961 17.153 14.222C15.1162 15.6479 13.5755 17.6742 12.7459 20.0179C11.9163 22.3617 11.8393 24.9061 12.5255 27.2958C13.2118 29.6854 14.627 31.8012 16.5738 33.3478C18.5205 34.8943 20.9016 35.7944 23.3845 35.9223C25.8675 36.0503 28.3285 35.3998 30.4239 34.0616C31.5579 33.3374 32.5543 32.4314 33.377 31.3868L22.3104 31.3891C21.6124 31.3892 21.1668 30.6445 21.4969 30.0295L26.9695 19.8323C27.1303 19.5327 27.4428 19.3457 27.7828 19.3457H39.5301C39.5829 19.3457 39.6346 19.3501 39.6849 19.3586L49.4416 0H60.8391L71.3178 28.6118L82.1091 0H93.4264L112.569 47.998H100.409L97.7815 41.7157L85.4083 41.7179C84.7626 41.7181 84.3163 41.0722 84.5448 40.4683L88.4016 30.2715C88.5374 29.9125 88.8812 29.6749 89.265 29.6749H92.7449L88.0366 18.4188L76.8661 47.9989L65.5747 47.998L54.2996 17.1702Z" fill="#0D0D0D"/>
</svg>
